#!OML:ASF F:\VICON\USERDATA\INSTALL\rory3\rory3.ASF
:FULLY-SPECIFIED
:DEGREES
88
root 0.06893132912077504 17.502553392748403 34.40445661896355 -1.6034291866567383 -6.787935192003561 -6.046634062571822
lfemur -25.190962222395676 -3.0769158776482772 -14.335008003076002
ltibia 25.681521181385794
lfoot -3.228710583338711 -1.9310589702050036
ltoes -2.6058395112676247
rfemur 9.337441997763431 5.114291658960243 30.98389933683255
rtibia 40.62076189991869
rfoot -3.7631805412967454 2.2445979137176835
rtoes 2.3135110194537187
lowerback nan 2.8347071685884195 5.293134963841495
upperback 0.31174780853813944 4.301051099375301 1.5441842558067302
thorax -4.802203634937464 2.072785916734388 -1.657979620302303
lowerneck -16.1232567773757 -3.005642691851814 -1.7983175405743959
upperneck 19.42381058964784 -4.13296725918842 2.016435900607926
head 8.787369339451748 -1.8590701763310322 0.480160304922413
lclavicle -8.70577085147625e-16 6.575170251659815e-16
lhumerus -36.234305405929035 7.045535813703965 81.2428020258353
lradius 18.380049250339738
lwrist -0.2832791324986257
lhand -25.804779957821413 24.82440150833428
lfingers nan
lthumb 0.5814028536981866 54.48469326701046
rclavicle -1.3927560226967112e-15 2.684651566902304e-16
rhumerus -25.896207856350532 -14.716850963914546 -80.86016713124934
rradius 26.353409927428842
rwrist 3.3806754355754554
rhand -17.81569376497612 nan
rfingers nan
rthumb 8.167880712465456 -7.2124776576580265
89
root 0.14796394641120247 17.571685449790483 34.745718085373866 -2.6921977143176217 -6.343989144203521 -4.798392737561363
lfemur -23.537106420947087 -2.1176066853379707 -17.0104041059165
ltibia 29.003478210220287
lfoot -3.5193853050125763 -2.942308054398647
ltoes -3.453981729751284
rfemur 6.016480685951613 3.7590005458736693 28.631126554190722
rtibia 48.79160636425233
rfoot 6.383036818768897 3.5228731627880485
rtoes 8.587711774975867
lowerback nan 2.8283128448947785 4.076508006998001
upperback 0.39134996760753543 4.139347233515377 1.233504127130384
thorax -4.837574230737887 2.000588621534603 -1.3445259112810555
lowerneck -16.061387965670768 -3.0113906874689675 -1.913969578413542
upperneck 19.478900433789697 -4.137436986866578 2.055412268509222
head 8.802276418695174 -1.8655955040971601 0.5080235228340906
lclavicle -8.392441591003884e-16 6.997350561053299e-16
lhumerus -35.939763668278104 6.773704298237788 81.2630435144942
lradius 18.678606595553756
lwrist 0.39141356082154477
lhand -25.944991087622043 24.160025516796196
lfingers nan
lthumb 0.4725067160549281 53.871118886947414
rclavicle -1.385837620863869e-15 2.889926607810565e-16
rhumerus -26.312128356298867 -15.494095307803086 -80.82010900853642
rradius 25.954912101859264
rwrist 3.908620733951104
rhand -17.797225684615096 nan
rfingers nan
rthumb 8.2517675960847 -7.2501320515812795
90
root 0.2092506065726386 17.660437962402394 35.25444514444834 -3.6268240064417823 -6.2274446614298675 -3.700190217374905
lfemur -20.80258018698121 -1.6371003387636303 -18.747604595911298
ltibia 30.161103982827676
lfoot -4.011787004040984 -2.1692671300910433
ltoes -4.097104486532262
rfemur 1.6294161117364254 2.3526700959150935 26.446212009331308
rtibia 56.944733661699495
rfoot 14.34582447410968 2.2597354989240994
rtoes 17.791702658579762
lowerback nan 2.8127308163037656 3.0147385059093574
upperback 0.47535738806035394 3.968342088288021 0.9261559618567463
thorax -4.859382338695428 1.9205009038236402 -1.039054920911529
lowerneck -16.039471526920448 -2.9901906141539722 -2.052430660861127
upperneck 19.51504513354214 -4.091565684426723 2.069565391179838
head 8.817613730781382 -1.8527379116030933 0.5357538324334513
lclavicle -8.841630250954076e-16 6.804359831794901e-16
lhumerus -35.440963957281724 6.221981090009086 81.4125074747989
lradius 19.249089519354335
lwrist 1.4041352356198038
lhand -26.423220698668896 22.952679966519394
lfingers nan
lthumb 0.09055009074784592 52.85992604251714
rclavicle -1.4121287898369872e-15 2.9246516463397375e-16
rhumerus -26.6918880661948 -16.277987511522113 -80.74243342552543
rradius 25.55453118812261
rwrist 4.390644093699396
rhand -17.77827339066629 nan
rfingers nan
rthumb 8.331811452671674 -7.25206843738499
91
root 0.2729789838848632 17.741204503645104 35.48144785167939 -4.24223494366306 -6.171265087991584 -2.670274838743158
lfemur -17.552588534052294 -1.8011337562255698 -20.09837366060612
ltibia 29.20301925256093
lfoot -5.667607455586166 -1.3822319008025163
ltoes -3.9427587987208708
rfemur -3.398292638548357 1.1378875090268417 24.613283774577024
rtibia 63.9522720447527
rfoot 13.746566844215216 -1.3612262309338519
rtoes 18.920035725847228
lowerback nan 2.67669627341416 2.062662260086246
upperback 0.545708049876189 3.666796583169127 0.6829180283264267
thorax -4.908349292470144 1.7810366762761902 -0.7069296449879209
lowerneck -16.054080844072413 -2.9545639889231916 -2.2114224866970957
upperneck 19.530197096235025 -4.015371450469382 2.0722397953989153
head 8.831266243670871 -1.82776264639089 0.5647384540183497
lclavicle -9.09321023140314e-16 6.647340189561117e-16
lhumerus -34.73097325299087 5.4075266880905035 81.6613562113529
lradius 20.02365086203083
lwrist 2.4447875152056597
lhand -27.0584364436497 21.76548915967035
lfingers nan
lthumb -0.43029146900790133 51.93547656015183
rclavicle -1.4161309980039993e-15 2.9706730790758925e-16
rhumerus -27.0668894439666 -17.031318803873138 -80.61475861099458
rradius 25.225247959617324
rwrist 4.697384430861507
rhand -17.764977744721996 nan
rfingers nan
rthumb 8.393252195444923 -7.256051163927557
92
root 0.3240657863938802 17.81077025425986 35.430793640325135 -4.607446229596553 -6.526526456954631 -1.919877269757993
lfemur -14.614576049371024 -2.13003347806128 -21.33309144239735
ltibia 28.17410062118665
lfoot -7.210044128578889 -0.32095327247635924
ltoes -3.4669138292578645
rfemur -8.881501093408882 0.024028699627112182 23.413881586016974
rtibia 69.14330579304965
rfoot 7.879860227616437 -4.800653571715198
rtoes 15.986976337624336
lowerback nan 2.499065900335107 1.4484399773937235
upperback 0.6148548481029508 3.3326474738657637 0.5751862904006244
thorax -4.949700387223333 1.6109008567359673 -0.4215756329657413
lowerneck -16.096495821256163 -2.9123516233900975 -2.399706356410728
upperneck 19.52064411214081 -3.9229948829419055 2.07619554301051
head 8.840098538467572 -1.795729656567113 0.5967327409281806
lclavicle -8.993894465499158e-16 6.913520384716307e-16
lhumerus -33.818843379655775 4.347679954545016 81.97222884823768
lradius 20.948060954121477
lwrist 3.312318845194514
lhand -27.593554329050843 21.103825650519784
lfingers nan
lthumb -0.872932481790057 51.47116031943273
rclavicle -1.386225506302568e-15 3.3534773935771835e-16
rhumerus -27.435455131379097 -17.648523461773124 -80.44662118656488
rradius 25.010492289467006
rwrist 4.717567688140082
rhand -17.755331082787677 nan
rfingers nan
rthumb 8.431997015195968 -7.269401665110719
